<svg id="Capa_1" enable-background="new 0 0 512 512" height="512" viewBox="0 0 512 512" width="512" xmlns="http://www.w3.org/2000/svg"><g><path d="m90.129 56.429c-4.143 0-7.5 3.357-7.5 7.5s3.357 7.5 7.5 7.5h5.521c4.143 0 7.5-3.357 7.5-7.5s-3.357-7.5-7.5-7.5z"/><path d="m117.468 56.429c-4.143 0-7.5 3.357-7.5 7.5s3.357 7.5 7.5 7.5h5.521c4.143 0 7.5-3.357 7.5-7.5s-3.357-7.5-7.5-7.5z"/><path d="m137.307 63.929c0 4.143 3.357 7.5 7.5 7.5h5.521c4.143 0 7.5-3.357 7.5-7.5s-3.357-7.5-7.5-7.5h-5.521c-4.143 0-7.5 3.357-7.5 7.5z"/><path d="m106.731 195.525h11.644c4.143 0 7.5-3.357 7.5-7.5s-3.357-7.5-7.5-7.5h-11.644c-4.143 0-7.5 3.357-7.5 7.5s3.358 7.5 7.5 7.5z"/><path d="m211.08 409.23c-11.369 0-20.619 9.25-20.619 20.619s9.25 20.619 20.619 20.619 20.619-9.25 20.619-20.619v-60.141c0-4.143-3.357-7.5-7.5-7.5h-47.352c-4.143 0-7.5 3.357-7.5 7.5v40.3c-1.787-.507-3.672-.778-5.619-.778-11.369 0-20.619 9.25-20.619 20.619s9.25 20.619 20.619 20.619 20.619-9.25 20.619-20.619v-28.843h32.352v9.002c-1.787-.506-3.672-.778-5.619-.778zm0 26.239c-3.099 0-5.619-2.521-5.619-5.619s2.521-5.619 5.619-5.619 5.619 2.521 5.619 5.619-2.52 5.619-5.619 5.619zm-47.351 0c-3.099 0-5.619-2.521-5.619-5.619s2.521-5.619 5.619-5.619 5.619 2.521 5.619 5.619-2.521 5.619-5.619 5.619zm20.619-58.26h32.352v8.798h-32.352z"/><path d="m369.999 212.801c3.131-2.711 3.471-7.448.759-10.579l-12.233-14.126 12.233-14.126c2.712-3.131 2.372-7.868-.759-10.579-3.131-2.714-7.868-2.371-10.579.759l-16.486 19.036c-2.441 2.818-2.441 7.002 0 9.82l16.486 19.036c2.703 3.124 7.44 3.477 10.579.759z"/><path d="m425.99 212.802c3.145 2.723 7.88 2.356 10.58-.76l16.485-19.036c2.44-2.818 2.44-7.002 0-9.82l-16.485-19.036c-2.713-3.133-7.449-3.471-10.58-.76-3.131 2.712-3.471 7.448-.76 10.58l12.233 14.126-12.233 14.126c-2.71 3.132-2.371 7.868.76 10.58z"/><path d="m380.254 221.597c3.666 1.942 8.202.538 10.138-3.118l28.461-53.746c1.938-3.66.542-8.199-3.118-10.138-3.661-1.938-8.199-.543-10.138 3.118l-28.461 53.746c-1.939 3.66-.542 8.199 3.118 10.138z"/><path d="m407.618 441.471c4.847 2.265 10.395 1.531 14.483-1.889l27.271-22.81c3.099-2.592 4.875-6.395 4.875-10.434s-1.776-7.842-4.875-10.433l-27.27-22.81c-4.097-3.426-9.647-4.151-14.483-1.89-4.838 2.261-7.844 6.982-7.844 12.322v45.619c0 5.342 3.005 10.064 7.843 12.325zm7.157-54.947 23.69 19.814-23.69 19.815z"/><path d="m496.23 244.332c8.695 0 15.77-7.074 15.77-15.77v-80.934c0-8.696-7.074-15.771-15.77-15.771h-34.944v-69.85c0-15.832-12.881-28.713-28.713-28.713h-262.57c-4.143 0-7.5 3.357-7.5 7.5s3.357 7.5 7.5 7.5h262.57c7.562 0 13.713 6.151 13.713 13.713v17.552h-380.572v-17.55c0-7.562 6.151-13.713 13.713-13.713h61.576c4.143 0 7.5-3.357 7.5-7.5s-3.357-7.5-7.5-7.5h-61.576c-15.832 0-28.713 12.881-28.713 28.713v90.078h-43.214c-4.143 0-7.5 3.357-7.5 7.5v115.403c0 4.143 3.357 7.5 7.5 7.5h43.214v100.908c0 15.833 12.881 28.714 28.713 28.714h19.988v48.723c0 9.854 8.016 17.869 17.869 17.869h31.944c4.143 0 7.5-3.357 7.5-7.5s-3.357-7.5-7.5-7.5h-31.944c-1.582 0-2.869-1.287-2.869-2.869v-108.991c0-1.582 1.287-2.869 2.869-2.869h140.24c1.582 0 2.869 1.287 2.869 2.869v108.991c0 1.582-1.287 2.869-2.869 2.869h-79.296c-4.143 0-7.5 3.357-7.5 7.5s3.357 7.5 7.5 7.5h79.296c9.854 0 17.869-8.016 17.869-17.869v-48.723h60.629v48.722c0 9.854 8.016 17.87 17.869 17.87h140.239c9.854 0 17.869-8.017 17.869-17.87v-108.99c0-9.854-8.016-17.869-17.869-17.869h-32.845v-89.643zm-316.326-77.245v73.129l-32.9-24.978c-2.876-2.184-6.9-2.008-9.574.419l-29.423 26.69-42.652-44.017c-2.765-2.855-7.28-3.055-10.288-.457l-40.067 34.607v-65.394h164.904zm-47.534 100.403-13.92-14.365 24.445-22.174 37.01 28.098v8.441zm-117.37-15.189 44.511-38.445 51.973 53.635h-96.484zm482 99.543v108.99c0 1.583-1.287 2.87-2.869 2.87h-140.239c-1.582 0-2.869-1.287-2.869-2.87v-108.99c0-1.582 1.287-2.869 2.869-2.869h140.239c1.582 0 2.869 1.287 2.869 2.869zm-50.714-17.869h-92.395c-9.854 0-17.869 8.016-17.869 17.869v45.269h-60.629v-45.269c0-9.854-8.016-17.869-17.869-17.869h-140.24c-9.854 0-17.869 8.016-17.869 17.869v45.269h-19.988c-7.562 0-13.713-6.152-13.713-13.714v-100.909h121.69c4.143 0 7.5-3.357 7.5-7.5 0-24.494 0-92.134 0-115.403 0-4.143-3.357-7.5-7.5-7.5h-121.69v-57.525h380.572v37.297h-146.527c-8.696 0-15.771 7.074-15.771 15.771v80.934c0 8.695 7.074 15.77 15.771 15.77h42.587c4.143 0 7.5-3.357 7.5-7.5s-3.357-7.5-7.5-7.5h-42.587c-.425 0-.771-.345-.771-.77v-80.934c0-.425.346-.771.771-.771h196.471c.424 0 .77.346.77.771v80.934c0 .425-.346.77-.77.77h-124.884c-4.143 0-7.5 3.357-7.5 7.5s3.357 7.5 7.5 7.5h74.94z"/></g></svg>